<svg xmlns="http://www.w3.org/2000/svg" width="50" style="fill:#a50103" height="50" viewBox="0 0 50 50">
    <path style="text-indent:0;text-align:start;line-height:normal;text-transform:none;block-progression:tb;-inkscape-font-specification:Bitstream Vera Sans" d="M 2.84375 13 C 1.2847913 13 0 14.285994 0 15.84375 L 0 42 C 0 43.65968 1.3415513 45 3 45 L 7.09375 45 C 7.5685656 47.834783 10.035015 50 13 50 C 15.964985 50 18.431434 47.834783 18.90625 45 L 28.15625 45 C 28.894208 45 29.554366 44.687882 30.0625 44.21875 C 30.580666 44.676855 31.246095 44.99404 32 45 L 33.09375 45 C 33.568566 47.834783 36.035015 50 39 50 C 42.301864 50 45 47.301864 45 44 C 45 40.698136 42.301864 38 39 38 C 36.035015 38 33.568566 40.165217 33.09375 43 L 32 43 C 31.813532 42.998526 31.526282 42.869316 31.3125 42.65625 C 31.098718 42.443184 31 42.182214 31 42 L 31 23 C 31 22.626723 31.625746 22 32 22 L 40 22 C 40.785911 22 41.891803 22.840679 42.65625 23.75 C 42.66565 23.7612 42.67819 23.77003 42.6875 23.78125 L 42.84375 24 L 38 24 C 36.404667 24 35 25.290772 35 27 L 35 31 C 35 31.833333 35.374115 32.561615 35.90625 33.09375 C 36.438385 33.625885 37.166667 34 38 34 L 48 34 L 48 42 C 48 42.374909 47.374909 43 47 43 L 45 43 L 45 44 L 45 45 L 47 45 C 48.661091 45 50 43.661091 50 42 L 50 32.375 C 50 30.087025 48.40625 28.0625 48.40625 28.0625 L 48.375 28.0625 L 44.25 22.5625 L 44.25 22.53125 L 44.21875 22.5 C 43.295816 21.387887 41.91441 20 40 20 L 32 20 C 31.643417 20 31.316765 20.07422 31 20.1875 L 31 15.90625 C 31 14.369695 29.787924 13 28.1875 13 L 2.84375 13 z M 2.84375 15 L 28.1875 15 C 28.619076 15 29 15.414805 29 15.90625 L 29 23 L 29 42 L 29 42.15625 C 29 42.626912 28.630413 43 28.15625 43 L 18.90625 43 C 18.431434 40.165217 15.964985 38 13 38 C 10.035015 38 7.5685656 40.165217 7.09375 43 L 3 43 C 2.6244487 43 2 42.37032 2 42 L 2 15.84375 C 2 15.375506 2.3687087 15 2.84375 15 z M 38 26 L 44.34375 26 L 46.78125 29.25 C 46.78125 29.25 47.687176 30.800626 47.875 32 L 38 32 C 37.833333 32 37.561615 31.874115 37.34375 31.65625 C 37.125885 31.438385 37 31.166667 37 31 L 37 27 C 37 26.495228 37.595333 26 38 26 z M 13 40 C 15.220984 40 17 41.779016 17 44 C 17 46.220984 15.220984 48 13 48 C 10.779016 48 9 46.220984 9 44 C 9 41.779016 10.779016 40 13 40 z M 39 40 C 41.220984 40 43 41.779016 43 44 C 43 46.220984 41.220984 48 39 48 C 36.779016 48 35 46.220984 35 44 C 35 41.779016 36.779016 40 39 40 z" overflow="visible" enable-background="accumulate" font-family="Bitstream Vera Sans"></path>
</svg>