<svg xmlns="http://www.w3.org/2000/svg" viewBox="0 0 512 416.24"><title>catalog</title><g id="Слой_2" data-name="Слой 2"><g id="Слой_1-2" data-name="Слой 1"><path d="M0,12.14C3.86,3,10.78,0,20.6,0Q256.5.28,492.4,0C502,0,508.28,3.55,512,12.14v8c-3.88,9.13-10.78,12.15-20.6,12.14q-235.9-.28-471.79,0C10.08,32.28,3.73,28.72,0,20.14Z"/><path d="M0,108.14C3.87,99,10.79,96,20.6,96q235.4.29,470.8,0c9.81,0,16.73,3,20.59,12.13v8c-3.87,9.14-10.79,12.15-20.6,12.13q-235.4-.29-470.79,0c-9.79,0-16.74-3-20.61-12.13Z"/><path d="M512,308.14c-3.87,9.16-10.82,12.33-20.61,12.15-23.16-.42-46.33-.15-69.49-.15H416c0,2.22,0,4,0,5.79q0,37,0,74a15.28,15.28,0,0,1-8.91,14.5A15,15,0,0,1,390.55,413c-4.65-3.37-6.59-8.11-6.58-13.85.06-24.33,0-48.66,0-73,0-1.81,0-3.61,0-6h-5.66q-36.25,0-72.49,0c-10.63,0-17.86-6.54-17.85-16s7.26-16,17.85-16q36,0,72,0H384c0-2,0-3.79,0-5.55,0-24.5-.06-49,0-73.49,0-12.4,11.35-20.41,22.18-15.67,6.82,3,9.85,8.53,9.83,15.95q-.08,36.75,0,73.49c0,1.49,0,3,0,5.28h4.91c23.5,0,47,.3,70.49-.15,9.82-.19,16.74,3,20.6,12.14Z"/><path d="M0,204.14C3.85,195,10.82,192,20.6,192c85.28.23,170.57.13,255.86.16,12.19,0,20,9.94,16.54,20.88-2.23,7-8.24,11.09-16.54,11.1q-44.72,0-89.45,0c-55.47,0-110.94-.16-166.41.12-9.8,0-16.74-3-20.6-12.14Z"/><path d="M0,300.14c3.83-9.19,10.78-12.19,20.58-12.14,51.44.3,102.89.12,154.33.15,9.24,0,16.14,5.87,17,14.22a15.94,15.94,0,0,1-12.55,17.35,39.21,39.21,0,0,1-8,.42c-50.28,0-100.56-.16-150.84.14-9.82.06-16.73-3-20.59-12.15Z"/></g></g></svg>