<svg xmlns="http://www.w3.org/2000/svg" style="fill:#a50103" viewBox="0 0 154.87 154.87"><title>icon-arrow-right</title><g id="Слой_2" data-name="Слой 2"><g id="Слой_1-2" data-name="Слой 1"><path d="M153.36,73.57a5.09,5.09,0,0,1,1.09,1.68,5.89,5.89,0,0,1,0,4.37,5.07,5.07,0,0,1-1.09,1.68L81.3,153.36a5.69,5.69,0,0,1-7.73,0,5.77,5.77,0,0,1-1.26-1.85,5.23,5.23,0,0,1-.42-2,5.66,5.66,0,0,1,.42-2.18,4.2,4.2,0,0,1,1.26-1.68L136.22,83H5.38a5.16,5.16,0,0,1-3.78-1.6,5.68,5.68,0,0,1,0-7.89,5.17,5.17,0,0,1,3.78-1.6H136.22L73.57,9.24a4.88,4.88,0,0,1-1.68-3.78,5.41,5.41,0,0,1,1.68-3.95,5.69,5.69,0,0,1,7.73,0Z"/></g></g></svg>