<svg id="Слой_1" data-name="Слой 1" xmlns="http://www.w3.org/2000/svg" viewBox="0 0 217.21 307.42"><title>самовывоз</title><path d="M326.21,527.2c-1.38-.41-2.78-.78-4.15-1.25-8.63-2.94-12.6-11.87-9.93-21,3-10.44,6.42-20.88,8.18-31.57,4-24.38,1.69-48.54-5-72.28a4.38,4.38,0,0,0-2.32-2.68c-8.17-2.62-13-8.62-16.2-16.06a144.16,144.16,0,0,1-11.18-70.2c1-12.07,5.81-22.15,17.34-27.69,9.75-4.68,18.45-2.14,24,7.18,2,3.35,3,7.31,4.38,11a8.19,8.19,0,0,1,.38,2.36c.52,8.58,1,17.16,1.59,26.92a118.2,118.2,0,0,1-11.17-27.83A13.05,13.05,0,0,0,308.21,294c-6.76.72-11.72,5.58-11.94,12.26a26.43,26.43,0,0,0,1.34,8.21,154.15,154.15,0,0,0,44.56,71.12,15.43,15.43,0,0,1,4.15,6.89q17.11,60.24-2.47,119.78c-2.6,7.91-7.1,13.09-15.25,14.95Z" transform="translate(-275.8 -219.78)"/><path d="M275.8,244c2.2-6.73,4.87-13.11,10.74-17.7a29,29,0,0,1,45.76,31.68c-4.17,12.52-15.71,20.14-29.67,19.6-12-.47-22.81-9.61-26-21.86a16.39,16.39,0,0,0-.86-2.12Z" transform="translate(-275.8 -219.78)"/><path d="M337.53,294.36l132.45-23,23,132.73L360.29,427.17l-5.44-31.27c3.59,2.27,6.57,4.25,9.64,6.07,7,4.16,14.89,2.38,18.77-4.15s1.84-14-5.06-18.21a117.52,117.52,0,0,1-27.75-23.26,16.15,16.15,0,0,1-3.58-7.23c-3.27-17.5-6.26-35.06-9.33-52.6A16.31,16.31,0,0,1,337.53,294.36Z" transform="translate(-275.8 -219.78)"/><path d="M370.77,401.49a29.5,29.5,0,0,1-5-2.17C331.9,378.4,310,348.58,299.57,310.28c-1.68-6.16,1.41-11.64,7.08-13.21s11.06,1.76,12.73,7.92c6.38,23.56,18.26,43.93,36.07,60.56,6.67,6.23,14.42,11.32,21.8,16.75,4,2.95,5.94,7.36,4.63,11.77S376.5,401.47,370.77,401.49Z" transform="translate(-275.8 -219.78)"/></svg>